<svg xmlns="http://www.w3.org/2000/svg" width="21.6" height="16.22" viewBox="0 0 21.6 16.22">
  <defs>
    <style>
      .cls-1 {
        fill-rule: evenodd;
        opacity: 0.75;
      }
    </style>
  </defs>
  <path id="custom.svg" class="cls-1" d="M1597.11,1282.52a1.39,1.39,0,1,1,1.4-1.39,1.4,1.4,0,0,1-1.4,1.39m14.56-1.88h-11.84a0.487,0.487,0,0,0-.33.13,2.419,2.419,0,0,0-4.76-.12c-0.02,0-.04-0.01-0.06-0.01h-3.08a0.514,0.514,0,0,0-.52.51,0.508,0.508,0,0,0,.52.51h3.08c0.03,0,.05-0.01.07-0.01a2.422,2.422,0,0,0,4.75-.12,0.487,0.487,0,0,0,.33.13h12.35a0.508,0.508,0,0,0,.52-0.51,0.514,0.514,0,0,0-.52-0.51h-0.51Zm0.51,6.15h-2.91a2.413,2.413,0,0,0-4.8,0H1591.6a0.51,0.51,0,1,0,0,1.02h12.99a2.4,2.4,0,0,0,4.56,0h3.03A0.51,0.51,0,1,0,1612.18,1286.79Zm-5.31,1.63a1.385,1.385,0,1,1,1.39-1.38A1.394,1.394,0,0,1,1606.87,1288.42Zm5.83,4a0.514,0.514,0,0,0-.52-0.51h-12.35a0.513,0.513,0,0,0-.34.13,2.417,2.417,0,0,0-4.71-.11,0.355,0.355,0,0,0-.1-0.02h-3.08a0.51,0.51,0,1,0,0,1.02h3.08a0.075,0.075,0,0,0,.05-0.01,2.416,2.416,0,0,0,4.78-.11,0.526,0.526,0,0,0,.32.12h12.35A0.514,0.514,0,0,0,1612.7,1292.42Zm-15.59,1.49a1.385,1.385,0,1,1,1.4-1.39A1.393,1.393,0,0,1,1597.11,1293.91Z" transform="translate(-1591.09 -1278.72)"/>
</svg>
