<svg xmlns="http://www.w3.org/2000/svg" width="21.63" height="19.47" viewBox="0 0 21.63 19.47">
  <defs>
    <style>
      .cls-1 {
        fill-rule: evenodd;
        opacity: 0.75;
      }
    </style>
  </defs>
  <path id="dashboard.svg" class="cls-1" d="M1611.13,1234.52h-3.83a0.483,0.483,0,0,0-.47.5v10.43h-1.65v-16.06a0.48,0.48,0,0,0-.47-0.49h-3.86a0.48,0.48,0,0,0-.47.49v16.08h-1.65v-7.76a0.474,0.474,0,0,0-.47-0.49h-3.86a0.474,0.474,0,0,0-.47.49v7.76h-1.05a0.489,0.489,0,0,1-.29-0.1,0.769,0.769,0,0,1-.16-0.55V1227.3a0.474,0.474,0,0,0-.47-0.49h-1.49a0.5,0.5,0,0,0,0,.99h1.02v2.22h-1.02a0.5,0.5,0,0,0,0,.99h1.02v2.22h-1.02a0.5,0.5,0,0,0,0,.99h1.02v2.22h-1.02a0.5,0.5,0,0,0,0,.99h1.02v2.22h-1.02a0.5,0.5,0,0,0,0,.99h1.02v2.22h-1.02a0.5,0.5,0,0,0,0,.99h1.02v0.77a1.732,1.732,0,0,0,.47,1.31,1.386,1.386,0,0,0,.92.36h18.27a0.482,0.482,0,0,0,.48-0.49v-10.76A0.533,0.533,0,0,0,1611.13,1234.52Zm-16.23,10.95v-7.27h2.86v7.25h-2.86v0.02h0Zm6.45,0v-15.58h2.86v15.56h-2.86v0.02Zm6.45,0v-9.93h2.86v9.93h-2.86Z" transform="translate(-1590 -1226.81)"/>
</svg>
