<svg xmlns="http://www.w3.org/2000/svg" width="22.69" height="19.47" viewBox="0 0 22.69 19.47">
  <defs>
    <style>
      .cls-1 {
        fill-rule: evenodd;
        opacity: 0.75;
      }
    </style>
  </defs>
  <path id="report.svg" class="cls-1" d="M1610.3,1178.23a2.236,2.236,0,0,0-1.73,3.67l-4.13,5.46a2.37,2.37,0,0,0-.9-0.19,2.164,2.164,0,0,0-1.43.52l-3.25-2.45a2.025,2.025,0,0,0,.19-0.92,2.255,2.255,0,1,0-2.25,2.23,2.183,2.183,0,0,0,1.43-.52l3.24,2.45a2,2,0,0,0-.19.92,2.255,2.255,0,1,0,3.99-1.44l4.13-5.49a2.37,2.37,0,0,0,.9.19A2.215,2.215,0,1,0,1610.3,1178.23Zm-14.69,6.06a1.24,1.24,0,1,1,1.24,1.22A1.223,1.223,0,0,1,1595.61,1184.29Zm7.93,6.31a1.225,1.225,0,1,1,1.23-1.23A1.231,1.231,0,0,1,1603.54,1190.6Zm6.76-8.95a1.22,1.22,0,1,1,1.24-1.22A1.221,1.221,0,0,1,1610.3,1181.65Zm2.4,13.32a0.493,0.493,0,0,1-.5.49h-19.17a1.463,1.463,0,0,1-.97-0.35,1.683,1.683,0,0,1-.49-1.31v-0.76h-1.07a0.487,0.487,0,0,1-.5-0.49,0.493,0.493,0,0,1,.5-0.49h1.07v-2.2h-1.07a0.49,0.49,0,1,1,0-.98h1.07v-2.2h-1.07a0.49,0.49,0,1,1,0-.98h1.07v-2.2h-1.07a0.49,0.49,0,1,1,0-.98h1.07v-2.2h-1.07a0.49,0.49,0,1,1,0-.98h1.07v-2.36h-1.07a0.49,0.49,0,1,1,0-.98h1.56a0.493,0.493,0,0,1,.5.49v17.34a0.729,0.729,0,0,0,.16.54,0.6,0.6,0,0,0,.33.11h19.15A0.493,0.493,0,0,1,1612.7,1194.97Z" transform="translate(-1590 -1176)"/>
</svg>
